<svg xmlns="http://www.w3.org/2000/svg" viewBox="0 0 400 700">
  <defs>
    <linearGradient id="hbg" x1="0" y1="0" x2="0" y2="1">
      <stop offset="0%" stop-color="#160604"/>
      <stop offset="55%" stop-color="#2a0c08"/>
      <stop offset="100%" stop-color="#150402"/>
    </linearGradient>
    <radialGradient id="hember" cx="50%" cy="92%" r="60%">
      <stop offset="0%" stop-color="#ff8a3d" stop-opacity="0.55"/>
      <stop offset="100%" stop-color="#ff8a3d" stop-opacity="0"/>
    </radialGradient>
  </defs>
  <rect width="400" height="700" fill="url(#hbg)"/>
  <rect x="0" y="0" width="400" height="700" fill="url(#hember)"/>
  <rect x="14" y="40" width="34" height="58" rx="4" fill="#241210" stroke="#3a1f19" stroke-width="2"/><rect x="352" y="40" width="34" height="58" rx="4" fill="#241210" stroke="#3a1f19" stroke-width="2"/><rect x="14" y="108" width="34" height="58" rx="4" fill="#241210" stroke="#3a1f19" stroke-width="2"/><rect x="352" y="108" width="34" height="58" rx="4" fill="#241210" stroke="#3a1f19" stroke-width="2"/><rect x="14" y="176" width="34" height="58" rx="4" fill="#241210" stroke="#3a1f19" stroke-width="2"/><rect x="352" y="176" width="34" height="58" rx="4" fill="#241210" stroke="#3a1f19" stroke-width="2"/><rect x="14" y="244" width="34" height="58" rx="4" fill="#241210" stroke="#3a1f19" stroke-width="2"/><rect x="352" y="244" width="34" height="58" rx="4" fill="#241210" stroke="#3a1f19" stroke-width="2"/><rect x="14" y="312" width="34" height="58" rx="4" fill="#241210" stroke="#3a1f19" stroke-width="2"/><rect x="352" y="312" width="34" height="58" rx="4" fill="#241210" stroke="#3a1f19" stroke-width="2"/><rect x="14" y="380" width="34" height="58" rx="4" fill="#241210" stroke="#3a1f19" stroke-width="2"/><rect x="352" y="380" width="34" height="58" rx="4" fill="#241210" stroke="#3a1f19" stroke-width="2"/><rect x="14" y="448" width="34" height="58" rx="4" fill="#241210" stroke="#3a1f19" stroke-width="2"/><rect x="352" y="448" width="34" height="58" rx="4" fill="#241210" stroke="#3a1f19" stroke-width="2"/><rect x="14" y="516" width="34" height="58" rx="4" fill="#241210" stroke="#3a1f19" stroke-width="2"/><rect x="352" y="516" width="34" height="58" rx="4" fill="#241210" stroke="#3a1f19" stroke-width="2"/><rect x="14" y="584" width="34" height="58" rx="4" fill="#241210" stroke="#3a1f19" stroke-width="2"/><rect x="352" y="584" width="34" height="58" rx="4" fill="#241210" stroke="#3a1f19" stroke-width="2"/>
  <rect x="48" y="30" width="304" height="640" rx="10" fill="#1c0906" stroke="#40201a" stroke-width="4"/>
  <line x1="200.0" y1="30" x2="200.0" y2="670" stroke="#40201a" stroke-width="4"/>
  <line x1="200.0" y1="640.0" x2="210.6" y2="614.4" stroke="#ff6a3d" stroke-width="10.2" stroke-linecap="round" opacity="0.35"/><line x1="210.6" y1="614.4" x2="209.9" y2="586.7" stroke="#ff6a3d" stroke-width="10.2" stroke-linecap="round" opacity="0.35"/><line x1="209.9" y1="586.7" x2="211.8" y2="559.1" stroke="#ff6a3d" stroke-width="10.2" stroke-linecap="round" opacity="0.35"/><line x1="211.8" y1="559.1" x2="211.8" y2="542.8" stroke="#ff6a3d" stroke-width="6.9" stroke-linecap="round" opacity="0.35"/><line x1="211.8" y1="542.8" x2="213.7" y2="526.6" stroke="#ff6a3d" stroke-width="6.9" stroke-linecap="round" opacity="0.35"/><line x1="213.7" y1="526.6" x2="221.8" y2="512.4" stroke="#ff6a3d" stroke-width="6.9" stroke-linecap="round" opacity="0.35"/><line x1="221.8" y1="512.4" x2="228.5" y2="508.2" stroke="#ff6a3d" stroke-width="4.7" stroke-linecap="round" opacity="0.35"/><line x1="228.5" y1="508.2" x2="236.2" y2="505.9" stroke="#ff6a3d" stroke-width="4.7" stroke-linecap="round" opacity="0.35"/><line x1="236.2" y1="505.9" x2="242.8" y2="501.5" stroke="#ff6a3d" stroke-width="4.7" stroke-linecap="round" opacity="0.35"/><line x1="242.8" y1="501.5" x2="246.8" y2="494.6" stroke="#ff6a3d" stroke-width="4.7" stroke-linecap="round" opacity="0.35"/><line x1="246.8" y1="494.6" x2="246.2" y2="486.7" stroke="#ff6a3d" stroke-width="3.2" stroke-linecap="round" opacity="0.35"/><line x1="246.2" y1="486.7" x2="248.5" y2="479.1" stroke="#ff6a3d" stroke-width="3.2" stroke-linecap="round" opacity="0.35"/><line x1="248.5" y1="479.1" x2="253.9" y2="473.3" stroke="#ff6a3d" stroke-width="3.2" stroke-linecap="round" opacity="0.35"/><line x1="246.8" y1="494.6" x2="255.6" y2="491.6" stroke="#ff6a3d" stroke-width="3.2" stroke-linecap="round" opacity="0.35"/><line x1="255.6" y1="491.6" x2="264.8" y2="490.2" stroke="#ff6a3d" stroke-width="3.2" stroke-linecap="round" opacity="0.35"/><line x1="221.8" y1="512.4" x2="227.7" y2="505.7" stroke="#ff6a3d" stroke-width="4.7" stroke-linecap="round" opacity="0.35"/><line x1="227.7" y1="505.7" x2="235.2" y2="501.0" stroke="#ff6a3d" stroke-width="4.7" stroke-linecap="round" opacity="0.35"/><line x1="235.2" y1="501.0" x2="243.0" y2="496.6" stroke="#ff6a3d" stroke-width="4.7" stroke-linecap="round" opacity="0.35"/><line x1="243.0" y1="496.6" x2="249.5" y2="490.4" stroke="#ff6a3d" stroke-width="4.7" stroke-linecap="round" opacity="0.35"/><line x1="249.5" y1="490.4" x2="248.7" y2="477.7" stroke="#ff6a3d" stroke-width="3.2" stroke-linecap="round" opacity="0.35"/><line x1="248.7" y1="477.7" x2="243.5" y2="466.0" stroke="#ff6a3d" stroke-width="3.2" stroke-linecap="round" opacity="0.35"/><line x1="249.5" y1="490.4" x2="250.6" y2="479.2" stroke="#ff6a3d" stroke-width="3.2" stroke-linecap="round" opacity="0.35"/><line x1="250.6" y1="479.2" x2="248.6" y2="468.1" stroke="#ff6a3d" stroke-width="3.2" stroke-linecap="round" opacity="0.35"/><line x1="211.8" y1="559.1" x2="220.9" y2="546.6" stroke="#ff6a3d" stroke-width="6.9" stroke-linecap="round" opacity="0.35"/><line x1="220.9" y1="546.6" x2="225.8" y2="531.9" stroke="#ff6a3d" stroke-width="6.9" stroke-linecap="round" opacity="0.35"/><line x1="225.8" y1="531.9" x2="236.5" y2="520.7" stroke="#ff6a3d" stroke-width="6.9" stroke-linecap="round" opacity="0.35"/><line x1="236.5" y1="520.7" x2="236.7" y2="513.1" stroke="#ff6a3d" stroke-width="4.7" stroke-linecap="round" opacity="0.35"/><line x1="236.7" y1="513.1" x2="237.3" y2="505.4" stroke="#ff6a3d" stroke-width="4.7" stroke-linecap="round" opacity="0.35"/><line x1="237.3" y1="505.4" x2="240.2" y2="498.4" stroke="#ff6a3d" stroke-width="4.7" stroke-linecap="round" opacity="0.35"/><line x1="240.2" y1="498.4" x2="241.3" y2="490.8" stroke="#ff6a3d" stroke-width="4.7" stroke-linecap="round" opacity="0.35"/><line x1="241.3" y1="490.8" x2="240.6" y2="484.5" stroke="#ff6a3d" stroke-width="3.2" stroke-linecap="round" opacity="0.35"/><line x1="240.6" y1="484.5" x2="242.3" y2="478.4" stroke="#ff6a3d" stroke-width="3.2" stroke-linecap="round" opacity="0.35"/><line x1="242.3" y1="478.4" x2="245.2" y2="472.8" stroke="#ff6a3d" stroke-width="3.2" stroke-linecap="round" opacity="0.35"/><line x1="241.3" y1="490.8" x2="237.7" y2="488.3" stroke="#ff6a3d" stroke-width="3.2" stroke-linecap="round" opacity="0.35"/><line x1="237.7" y1="488.3" x2="235.5" y2="484.5" stroke="#ff6a3d" stroke-width="3.2" stroke-linecap="round" opacity="0.35"/><line x1="235.5" y1="484.5" x2="234.3" y2="480.3" stroke="#ff6a3d" stroke-width="3.2" stroke-linecap="round" opacity="0.35"/><line x1="234.3" y1="480.3" x2="232.8" y2="476.2" stroke="#ff6a3d" stroke-width="3.2" stroke-linecap="round" opacity="0.35"/><line x1="110.0" y1="660.0" x2="114.5" y2="636.5" stroke="#ff6a3d" stroke-width="10.2" stroke-linecap="round" opacity="0.35"/><line x1="114.5" y1="636.5" x2="113.5" y2="612.6" stroke="#ff6a3d" stroke-width="10.2" stroke-linecap="round" opacity="0.35"/><line x1="113.5" y1="612.6" x2="108.7" y2="589.2" stroke="#ff6a3d" stroke-width="10.2" stroke-linecap="round" opacity="0.35"/><line x1="108.7" y1="589.2" x2="97.6" y2="587.2" stroke="#ff6a3d" stroke-width="6.9" stroke-linecap="round" opacity="0.35"/><line x1="97.6" y1="587.2" x2="86.9" y2="583.5" stroke="#ff6a3d" stroke-width="6.9" stroke-linecap="round" opacity="0.35"/><line x1="86.9" y1="583.5" x2="77.4" y2="577.4" stroke="#ff6a3d" stroke-width="6.9" stroke-linecap="round" opacity="0.35"/><line x1="77.4" y1="577.4" x2="71.6" y2="567.7" stroke="#ff6a3d" stroke-width="6.9" stroke-linecap="round" opacity="0.35"/><line x1="71.6" y1="567.7" x2="73.7" y2="560.2" stroke="#ff6a3d" stroke-width="4.7" stroke-linecap="round" opacity="0.35"/><line x1="73.7" y1="560.2" x2="73.3" y2="552.4" stroke="#ff6a3d" stroke-width="4.7" stroke-linecap="round" opacity="0.35"/><line x1="73.3" y1="552.4" x2="73.1" y2="544.6" stroke="#ff6a3d" stroke-width="4.7" stroke-linecap="round" opacity="0.35"/><line x1="73.1" y1="544.6" x2="71.1" y2="537.1" stroke="#ff6a3d" stroke-width="4.7" stroke-linecap="round" opacity="0.35"/><line x1="71.1" y1="537.1" x2="64.3" y2="534.1" stroke="#ff6a3d" stroke-width="3.2" stroke-linecap="round" opacity="0.35"/><line x1="64.3" y1="534.1" x2="56.8" y2="534.7" stroke="#ff6a3d" stroke-width="3.2" stroke-linecap="round" opacity="0.35"/><line x1="56.8" y1="534.7" x2="49.3" y2="535.6" stroke="#ff6a3d" stroke-width="3.2" stroke-linecap="round" opacity="0.35"/><line x1="71.6" y1="567.7" x2="70.0" y2="559.6" stroke="#ff6a3d" stroke-width="4.7" stroke-linecap="round" opacity="0.35"/><line x1="70.0" y1="559.6" x2="68.9" y2="551.5" stroke="#ff6a3d" stroke-width="4.7" stroke-linecap="round" opacity="0.35"/><line x1="68.9" y1="551.5" x2="65.8" y2="543.8" stroke="#ff6a3d" stroke-width="4.7" stroke-linecap="round" opacity="0.35"/><line x1="65.8" y1="543.8" x2="61.2" y2="537.0" stroke="#ff6a3d" stroke-width="4.7" stroke-linecap="round" opacity="0.35"/><line x1="61.2" y1="537.0" x2="49.0" y2="534.9" stroke="#ff6a3d" stroke-width="3.2" stroke-linecap="round" opacity="0.35"/><line x1="49.0" y1="534.9" x2="37.0" y2="537.6" stroke="#ff6a3d" stroke-width="3.2" stroke-linecap="round" opacity="0.35"/><line x1="61.2" y1="537.0" x2="55.7" y2="534.3" stroke="#ff6a3d" stroke-width="3.2" stroke-linecap="round" opacity="0.35"/><line x1="55.7" y1="534.3" x2="49.9" y2="532.1" stroke="#ff6a3d" stroke-width="3.2" stroke-linecap="round" opacity="0.35"/><line x1="49.9" y1="532.1" x2="43.8" y2="532.4" stroke="#ff6a3d" stroke-width="3.2" stroke-linecap="round" opacity="0.35"/><line x1="43.8" y1="532.4" x2="38.0" y2="534.5" stroke="#ff6a3d" stroke-width="3.2" stroke-linecap="round" opacity="0.35"/><line x1="108.7" y1="589.2" x2="113.2" y2="580.0" stroke="#ff6a3d" stroke-width="6.9" stroke-linecap="round" opacity="0.35"/><line x1="113.2" y1="580.0" x2="114.4" y2="569.9" stroke="#ff6a3d" stroke-width="6.9" stroke-linecap="round" opacity="0.35"/><line x1="114.4" y1="569.9" x2="120.1" y2="561.5" stroke="#ff6a3d" stroke-width="6.9" stroke-linecap="round" opacity="0.35"/><line x1="120.1" y1="561.5" x2="128.6" y2="556.1" stroke="#ff6a3d" stroke-width="6.9" stroke-linecap="round" opacity="0.35"/><line x1="128.6" y1="556.1" x2="131.3" y2="549.7" stroke="#ff6a3d" stroke-width="4.7" stroke-linecap="round" opacity="0.35"/><line x1="131.3" y1="549.7" x2="136.2" y2="544.7" stroke="#ff6a3d" stroke-width="4.7" stroke-linecap="round" opacity="0.35"/><line x1="136.2" y1="544.7" x2="140.0" y2="538.9" stroke="#ff6a3d" stroke-width="4.7" stroke-linecap="round" opacity="0.35"/><line x1="140.0" y1="538.9" x2="145.3" y2="534.4" stroke="#ff6a3d" stroke-width="4.7" stroke-linecap="round" opacity="0.35"/><line x1="145.3" y1="534.4" x2="143.7" y2="528.4" stroke="#ff6a3d" stroke-width="3.2" stroke-linecap="round" opacity="0.35"/><line x1="143.7" y1="528.4" x2="141.3" y2="522.6" stroke="#ff6a3d" stroke-width="3.2" stroke-linecap="round" opacity="0.35"/><line x1="141.3" y1="522.6" x2="137.1" y2="518.1" stroke="#ff6a3d" stroke-width="3.2" stroke-linecap="round" opacity="0.35"/><line x1="145.3" y1="534.4" x2="154.2" y2="536.4" stroke="#ff6a3d" stroke-width="3.2" stroke-linecap="round" opacity="0.35"/><line x1="154.2" y1="536.4" x2="161.5" y2="542.0" stroke="#ff6a3d" stroke-width="3.2" stroke-linecap="round" opacity="0.35"/><line x1="128.6" y1="556.1" x2="134.7" y2="556.1" stroke="#ff6a3d" stroke-width="4.7" stroke-linecap="round" opacity="0.35"/><line x1="134.7" y1="556.1" x2="140.4" y2="554.4" stroke="#ff6a3d" stroke-width="4.7" stroke-linecap="round" opacity="0.35"/><line x1="140.4" y1="554.4" x2="146.0" y2="552.1" stroke="#ff6a3d" stroke-width="4.7" stroke-linecap="round" opacity="0.35"/><line x1="146.0" y1="552.1" x2="150.0" y2="547.7" stroke="#ff6a3d" stroke-width="4.7" stroke-linecap="round" opacity="0.35"/><line x1="150.0" y1="547.7" x2="154.4" y2="546.0" stroke="#ff6a3d" stroke-width="3.2" stroke-linecap="round" opacity="0.35"/><line x1="154.4" y1="546.0" x2="159.0" y2="546.4" stroke="#ff6a3d" stroke-width="3.2" stroke-linecap="round" opacity="0.35"/><line x1="159.0" y1="546.4" x2="163.4" y2="544.6" stroke="#ff6a3d" stroke-width="3.2" stroke-linecap="round" opacity="0.35"/><line x1="150.0" y1="547.7" x2="154.4" y2="549.6" stroke="#ff6a3d" stroke-width="3.2" stroke-linecap="round" opacity="0.35"/><line x1="154.4" y1="549.6" x2="158.3" y2="552.1" stroke="#ff6a3d" stroke-width="3.2" stroke-linecap="round" opacity="0.35"/><line x1="158.3" y1="552.1" x2="162.4" y2="554.4" stroke="#ff6a3d" stroke-width="3.2" stroke-linecap="round" opacity="0.35"/><line x1="290.0" y1="660.0" x2="297.8" y2="644.7" stroke="#ff6a3d" stroke-width="10.2" stroke-linecap="round" opacity="0.35"/><line x1="297.8" y1="644.7" x2="311.8" y2="634.7" stroke="#ff6a3d" stroke-width="10.2" stroke-linecap="round" opacity="0.35"/><line x1="311.8" y1="634.7" x2="328.5" y2="630.6" stroke="#ff6a3d" stroke-width="10.2" stroke-linecap="round" opacity="0.35"/><line x1="328.5" y1="630.6" x2="345.7" y2="630.1" stroke="#ff6a3d" stroke-width="10.2" stroke-linecap="round" opacity="0.35"/><line x1="345.7" y1="630.1" x2="358.1" y2="619.5" stroke="#ff6a3d" stroke-width="6.9" stroke-linecap="round" opacity="0.35"/><line x1="358.1" y1="619.5" x2="365.7" y2="605.0" stroke="#ff6a3d" stroke-width="6.9" stroke-linecap="round" opacity="0.35"/><line x1="365.7" y1="605.0" x2="366.5" y2="588.7" stroke="#ff6a3d" stroke-width="6.9" stroke-linecap="round" opacity="0.35"/><line x1="366.5" y1="588.7" x2="355.7" y2="575.1" stroke="#ff6a3d" stroke-width="4.7" stroke-linecap="round" opacity="0.35"/><line x1="355.7" y1="575.1" x2="348.7" y2="559.2" stroke="#ff6a3d" stroke-width="4.7" stroke-linecap="round" opacity="0.35"/><line x1="348.7" y1="559.2" x2="340.6" y2="558.0" stroke="#ff6a3d" stroke-width="3.2" stroke-linecap="round" opacity="0.35"/><line x1="340.6" y1="558.0" x2="332.4" y2="558.6" stroke="#ff6a3d" stroke-width="3.2" stroke-linecap="round" opacity="0.35"/><line x1="332.4" y1="558.6" x2="324.3" y2="559.2" stroke="#ff6a3d" stroke-width="3.2" stroke-linecap="round" opacity="0.35"/><line x1="366.5" y1="588.7" x2="363.7" y2="571.7" stroke="#ff6a3d" stroke-width="4.7" stroke-linecap="round" opacity="0.35"/><line x1="363.7" y1="571.7" x2="354.6" y2="556.9" stroke="#ff6a3d" stroke-width="4.7" stroke-linecap="round" opacity="0.35"/><line x1="354.6" y1="556.9" x2="356.9" y2="544.8" stroke="#ff6a3d" stroke-width="3.2" stroke-linecap="round" opacity="0.35"/><line x1="356.9" y1="544.8" x2="364.3" y2="534.9" stroke="#ff6a3d" stroke-width="3.2" stroke-linecap="round" opacity="0.35"/><line x1="345.7" y1="630.1" x2="353.7" y2="624.0" stroke="#ff6a3d" stroke-width="6.9" stroke-linecap="round" opacity="0.35"/><line x1="353.7" y1="624.0" x2="362.7" y2="619.3" stroke="#ff6a3d" stroke-width="6.9" stroke-linecap="round" opacity="0.35"/><line x1="362.7" y1="619.3" x2="372.3" y2="616.1" stroke="#ff6a3d" stroke-width="6.9" stroke-linecap="round" opacity="0.35"/><line x1="372.3" y1="616.1" x2="380.2" y2="609.7" stroke="#ff6a3d" stroke-width="6.9" stroke-linecap="round" opacity="0.35"/><line x1="380.2" y1="609.7" x2="392.0" y2="602.5" stroke="#ff6a3d" stroke-width="4.7" stroke-linecap="round" opacity="0.35"/><line x1="392.0" y1="602.5" x2="405.7" y2="600.8" stroke="#ff6a3d" stroke-width="4.7" stroke-linecap="round" opacity="0.35"/><line x1="405.7" y1="600.8" x2="409.7" y2="603.2" stroke="#ff6a3d" stroke-width="3.2" stroke-linecap="round" opacity="0.35"/><line x1="409.7" y1="603.2" x2="414.3" y2="603.5" stroke="#ff6a3d" stroke-width="3.2" stroke-linecap="round" opacity="0.35"/><line x1="414.3" y1="603.5" x2="418.5" y2="601.7" stroke="#ff6a3d" stroke-width="3.2" stroke-linecap="round" opacity="0.35"/><line x1="418.5" y1="601.7" x2="421.8" y2="598.5" stroke="#ff6a3d" stroke-width="3.2" stroke-linecap="round" opacity="0.35"/><line x1="200.0" y1="420.0" x2="189.2" y2="383.9" stroke="#ff6a3d" stroke-width="10.2" stroke-linecap="round" opacity="0.35"/><line x1="189.2" y1="383.9" x2="189.6" y2="346.3" stroke="#ff6a3d" stroke-width="10.2" stroke-linecap="round" opacity="0.35"/><line x1="189.6" y1="346.3" x2="190.4" y2="332.9" stroke="#ff6a3d" stroke-width="6.9" stroke-linecap="round" opacity="0.35"/><line x1="190.4" y1="332.9" x2="192.7" y2="319.6" stroke="#ff6a3d" stroke-width="6.9" stroke-linecap="round" opacity="0.35"/><line x1="192.7" y1="319.6" x2="194.1" y2="306.3" stroke="#ff6a3d" stroke-width="6.9" stroke-linecap="round" opacity="0.35"/><line x1="194.1" y1="306.3" x2="195.5" y2="292.9" stroke="#ff6a3d" stroke-width="6.9" stroke-linecap="round" opacity="0.35"/><line x1="195.5" y1="292.9" x2="188.4" y2="289.0" stroke="#ff6a3d" stroke-width="4.7" stroke-linecap="round" opacity="0.35"/><line x1="188.4" y1="289.0" x2="181.7" y2="284.4" stroke="#ff6a3d" stroke-width="4.7" stroke-linecap="round" opacity="0.35"/><line x1="181.7" y1="284.4" x2="176.7" y2="278.1" stroke="#ff6a3d" stroke-width="4.7" stroke-linecap="round" opacity="0.35"/><line x1="176.7" y1="278.1" x2="174.0" y2="270.4" stroke="#ff6a3d" stroke-width="4.7" stroke-linecap="round" opacity="0.35"/><line x1="174.0" y1="270.4" x2="167.1" y2="263.1" stroke="#ff6a3d" stroke-width="3.2" stroke-linecap="round" opacity="0.35"/><line x1="167.1" y1="263.1" x2="159.3" y2="256.7" stroke="#ff6a3d" stroke-width="3.2" stroke-linecap="round" opacity="0.35"/><line x1="150.0" y1="300.0" x2="132.5" y2="267.5" stroke="#ff6a3d" stroke-width="10.2" stroke-linecap="round" opacity="0.35"/><line x1="132.5" y1="267.5" x2="117.1" y2="234.0" stroke="#ff6a3d" stroke-width="10.2" stroke-linecap="round" opacity="0.35"/><line x1="117.1" y1="234.0" x2="91.4" y2="234.7" stroke="#ff6a3d" stroke-width="6.9" stroke-linecap="round" opacity="0.35"/><line x1="91.4" y1="234.7" x2="66.0" y2="238.7" stroke="#ff6a3d" stroke-width="6.9" stroke-linecap="round" opacity="0.35"/><line x1="66.0" y1="238.7" x2="59.9" y2="246.1" stroke="#ff6a3d" stroke-width="4.7" stroke-linecap="round" opacity="0.35"/><line x1="59.9" y1="246.1" x2="56.2" y2="254.9" stroke="#ff6a3d" stroke-width="4.7" stroke-linecap="round" opacity="0.35"/><line x1="56.2" y1="254.9" x2="50.7" y2="262.8" stroke="#ff6a3d" stroke-width="4.7" stroke-linecap="round" opacity="0.35"/><line x1="50.7" y1="262.8" x2="44.8" y2="264.5" stroke="#ff6a3d" stroke-width="3.2" stroke-linecap="round" opacity="0.35"/><line x1="44.8" y1="264.5" x2="40.1" y2="268.3" stroke="#ff6a3d" stroke-width="3.2" stroke-linecap="round" opacity="0.35"/><line x1="40.1" y1="268.3" x2="35.2" y2="272.0" stroke="#ff6a3d" stroke-width="3.2" stroke-linecap="round" opacity="0.35"/><line x1="66.0" y1="238.7" x2="60.5" y2="233.9" stroke="#ff6a3d" stroke-width="4.7" stroke-linecap="round" opacity="0.35"/><line x1="60.5" y1="233.9" x2="55.7" y2="228.3" stroke="#ff6a3d" stroke-width="4.7" stroke-linecap="round" opacity="0.35"/><line x1="55.7" y1="228.3" x2="53.1" y2="221.4" stroke="#ff6a3d" stroke-width="4.7" stroke-linecap="round" opacity="0.35"/><line x1="53.1" y1="221.4" x2="49.5" y2="215.0" stroke="#ff6a3d" stroke-width="4.7" stroke-linecap="round" opacity="0.35"/><line x1="49.5" y1="215.0" x2="44.6" y2="212.2" stroke="#ff6a3d" stroke-width="3.2" stroke-linecap="round" opacity="0.35"/><line x1="44.6" y1="212.2" x2="41.4" y2="207.6" stroke="#ff6a3d" stroke-width="3.2" stroke-linecap="round" opacity="0.35"/><line x1="41.4" y1="207.6" x2="38.9" y2="202.6" stroke="#ff6a3d" stroke-width="3.2" stroke-linecap="round" opacity="0.35"/><line x1="49.5" y1="215.0" x2="52.6" y2="206.5" stroke="#ff6a3d" stroke-width="3.2" stroke-linecap="round" opacity="0.35"/><line x1="52.6" y1="206.5" x2="58.7" y2="199.8" stroke="#ff6a3d" stroke-width="3.2" stroke-linecap="round" opacity="0.35"/><line x1="250.0" y1="300.0" x2="272.0" y2="267.9" stroke="#ff6a3d" stroke-width="10.2" stroke-linecap="round" opacity="0.35"/><line x1="272.0" y1="267.9" x2="299.0" y2="239.8" stroke="#ff6a3d" stroke-width="10.2" stroke-linecap="round" opacity="0.35"/><line x1="299.0" y1="239.8" x2="307.7" y2="233.4" stroke="#ff6a3d" stroke-width="6.9" stroke-linecap="round" opacity="0.35"/><line x1="307.7" y1="233.4" x2="318.4" y2="231.7" stroke="#ff6a3d" stroke-width="6.9" stroke-linecap="round" opacity="0.35"/><line x1="318.4" y1="231.7" x2="328.9" y2="229.3" stroke="#ff6a3d" stroke-width="6.9" stroke-linecap="round" opacity="0.35"/><line x1="328.9" y1="229.3" x2="339.5" y2="231.0" stroke="#ff6a3d" stroke-width="6.9" stroke-linecap="round" opacity="0.35"/><line x1="339.5" y1="231.0" x2="345.8" y2="224.0" stroke="#ff6a3d" stroke-width="4.7" stroke-linecap="round" opacity="0.35"/><line x1="345.8" y1="224.0" x2="354.4" y2="220.2" stroke="#ff6a3d" stroke-width="4.7" stroke-linecap="round" opacity="0.35"/><line x1="354.4" y1="220.2" x2="363.8" y2="220.7" stroke="#ff6a3d" stroke-width="4.7" stroke-linecap="round" opacity="0.35"/><line x1="363.8" y1="220.7" x2="367.3" y2="218.1" stroke="#ff6a3d" stroke-width="3.2" stroke-linecap="round" opacity="0.35"/><line x1="367.3" y1="218.1" x2="370.4" y2="215.1" stroke="#ff6a3d" stroke-width="3.2" stroke-linecap="round" opacity="0.35"/><line x1="370.4" y1="215.1" x2="372.6" y2="211.4" stroke="#ff6a3d" stroke-width="3.2" stroke-linecap="round" opacity="0.35"/><line x1="372.6" y1="211.4" x2="374.6" y2="207.5" stroke="#ff6a3d" stroke-width="3.2" stroke-linecap="round" opacity="0.35"/><line x1="339.5" y1="231.0" x2="349.7" y2="223.9" stroke="#ff6a3d" stroke-width="4.7" stroke-linecap="round" opacity="0.35"/><line x1="349.7" y1="223.9" x2="359.4" y2="216.2" stroke="#ff6a3d" stroke-width="4.7" stroke-linecap="round" opacity="0.35"/><line x1="359.4" y1="216.2" x2="365.0" y2="213.8" stroke="#ff6a3d" stroke-width="3.2" stroke-linecap="round" opacity="0.35"/><line x1="365.0" y1="213.8" x2="370.7" y2="211.8" stroke="#ff6a3d" stroke-width="3.2" stroke-linecap="round" opacity="0.35"/><line x1="370.7" y1="211.8" x2="376.7" y2="211.3" stroke="#ff6a3d" stroke-width="3.2" stroke-linecap="round" opacity="0.35"/>
  <line x1="200.0" y1="640.0" x2="210.6" y2="614.4" stroke="#ffd9a8" stroke-width="3.4" stroke-linecap="round"/><line x1="210.6" y1="614.4" x2="209.9" y2="586.7" stroke="#ffd9a8" stroke-width="3.4" stroke-linecap="round"/><line x1="209.9" y1="586.7" x2="211.8" y2="559.1" stroke="#ffd9a8" stroke-width="3.4" stroke-linecap="round"/><line x1="211.8" y1="559.1" x2="211.8" y2="542.8" stroke="#ffd9a8" stroke-width="2.3" stroke-linecap="round"/><line x1="211.8" y1="542.8" x2="213.7" y2="526.6" stroke="#ffd9a8" stroke-width="2.3" stroke-linecap="round"/><line x1="213.7" y1="526.6" x2="221.8" y2="512.4" stroke="#ffd9a8" stroke-width="2.3" stroke-linecap="round"/><line x1="221.8" y1="512.4" x2="228.5" y2="508.2" stroke="#ffd9a8" stroke-width="1.6" stroke-linecap="round"/><line x1="228.5" y1="508.2" x2="236.2" y2="505.9" stroke="#ffd9a8" stroke-width="1.6" stroke-linecap="round"/><line x1="236.2" y1="505.9" x2="242.8" y2="501.5" stroke="#ffd9a8" stroke-width="1.6" stroke-linecap="round"/><line x1="242.8" y1="501.5" x2="246.8" y2="494.6" stroke="#ffd9a8" stroke-width="1.6" stroke-linecap="round"/><line x1="246.8" y1="494.6" x2="246.2" y2="486.7" stroke="#ffd9a8" stroke-width="1.1" stroke-linecap="round"/><line x1="246.2" y1="486.7" x2="248.5" y2="479.1" stroke="#ffd9a8" stroke-width="1.1" stroke-linecap="round"/><line x1="248.5" y1="479.1" x2="253.9" y2="473.3" stroke="#ffd9a8" stroke-width="1.1" stroke-linecap="round"/><line x1="246.8" y1="494.6" x2="255.6" y2="491.6" stroke="#ffd9a8" stroke-width="1.1" stroke-linecap="round"/><line x1="255.6" y1="491.6" x2="264.8" y2="490.2" stroke="#ffd9a8" stroke-width="1.1" stroke-linecap="round"/><line x1="221.8" y1="512.4" x2="227.7" y2="505.7" stroke="#ffd9a8" stroke-width="1.6" stroke-linecap="round"/><line x1="227.7" y1="505.7" x2="235.2" y2="501.0" stroke="#ffd9a8" stroke-width="1.6" stroke-linecap="round"/><line x1="235.2" y1="501.0" x2="243.0" y2="496.6" stroke="#ffd9a8" stroke-width="1.6" stroke-linecap="round"/><line x1="243.0" y1="496.6" x2="249.5" y2="490.4" stroke="#ffd9a8" stroke-width="1.6" stroke-linecap="round"/><line x1="249.5" y1="490.4" x2="248.7" y2="477.7" stroke="#ffd9a8" stroke-width="1.1" stroke-linecap="round"/><line x1="248.7" y1="477.7" x2="243.5" y2="466.0" stroke="#ffd9a8" stroke-width="1.1" stroke-linecap="round"/><line x1="249.5" y1="490.4" x2="250.6" y2="479.2" stroke="#ffd9a8" stroke-width="1.1" stroke-linecap="round"/><line x1="250.6" y1="479.2" x2="248.6" y2="468.1" stroke="#ffd9a8" stroke-width="1.1" stroke-linecap="round"/><line x1="211.8" y1="559.1" x2="220.9" y2="546.6" stroke="#ffd9a8" stroke-width="2.3" stroke-linecap="round"/><line x1="220.9" y1="546.6" x2="225.8" y2="531.9" stroke="#ffd9a8" stroke-width="2.3" stroke-linecap="round"/><line x1="225.8" y1="531.9" x2="236.5" y2="520.7" stroke="#ffd9a8" stroke-width="2.3" stroke-linecap="round"/><line x1="236.5" y1="520.7" x2="236.7" y2="513.1" stroke="#ffd9a8" stroke-width="1.6" stroke-linecap="round"/><line x1="236.7" y1="513.1" x2="237.3" y2="505.4" stroke="#ffd9a8" stroke-width="1.6" stroke-linecap="round"/><line x1="237.3" y1="505.4" x2="240.2" y2="498.4" stroke="#ffd9a8" stroke-width="1.6" stroke-linecap="round"/><line x1="240.2" y1="498.4" x2="241.3" y2="490.8" stroke="#ffd9a8" stroke-width="1.6" stroke-linecap="round"/><line x1="241.3" y1="490.8" x2="240.6" y2="484.5" stroke="#ffd9a8" stroke-width="1.1" stroke-linecap="round"/><line x1="240.6" y1="484.5" x2="242.3" y2="478.4" stroke="#ffd9a8" stroke-width="1.1" stroke-linecap="round"/><line x1="242.3" y1="478.4" x2="245.2" y2="472.8" stroke="#ffd9a8" stroke-width="1.1" stroke-linecap="round"/><line x1="241.3" y1="490.8" x2="237.7" y2="488.3" stroke="#ffd9a8" stroke-width="1.1" stroke-linecap="round"/><line x1="237.7" y1="488.3" x2="235.5" y2="484.5" stroke="#ffd9a8" stroke-width="1.1" stroke-linecap="round"/><line x1="235.5" y1="484.5" x2="234.3" y2="480.3" stroke="#ffd9a8" stroke-width="1.1" stroke-linecap="round"/><line x1="234.3" y1="480.3" x2="232.8" y2="476.2" stroke="#ffd9a8" stroke-width="1.1" stroke-linecap="round"/><line x1="110.0" y1="660.0" x2="114.5" y2="636.5" stroke="#ffd9a8" stroke-width="3.4" stroke-linecap="round"/><line x1="114.5" y1="636.5" x2="113.5" y2="612.6" stroke="#ffd9a8" stroke-width="3.4" stroke-linecap="round"/><line x1="113.5" y1="612.6" x2="108.7" y2="589.2" stroke="#ffd9a8" stroke-width="3.4" stroke-linecap="round"/><line x1="108.7" y1="589.2" x2="97.6" y2="587.2" stroke="#ffd9a8" stroke-width="2.3" stroke-linecap="round"/><line x1="97.6" y1="587.2" x2="86.9" y2="583.5" stroke="#ffd9a8" stroke-width="2.3" stroke-linecap="round"/><line x1="86.9" y1="583.5" x2="77.4" y2="577.4" stroke="#ffd9a8" stroke-width="2.3" stroke-linecap="round"/><line x1="77.4" y1="577.4" x2="71.6" y2="567.7" stroke="#ffd9a8" stroke-width="2.3" stroke-linecap="round"/><line x1="71.6" y1="567.7" x2="73.7" y2="560.2" stroke="#ffd9a8" stroke-width="1.6" stroke-linecap="round"/><line x1="73.7" y1="560.2" x2="73.3" y2="552.4" stroke="#ffd9a8" stroke-width="1.6" stroke-linecap="round"/><line x1="73.3" y1="552.4" x2="73.1" y2="544.6" stroke="#ffd9a8" stroke-width="1.6" stroke-linecap="round"/><line x1="73.1" y1="544.6" x2="71.1" y2="537.1" stroke="#ffd9a8" stroke-width="1.6" stroke-linecap="round"/><line x1="71.1" y1="537.1" x2="64.3" y2="534.1" stroke="#ffd9a8" stroke-width="1.1" stroke-linecap="round"/><line x1="64.3" y1="534.1" x2="56.8" y2="534.7" stroke="#ffd9a8" stroke-width="1.1" stroke-linecap="round"/><line x1="56.8" y1="534.7" x2="49.3" y2="535.6" stroke="#ffd9a8" stroke-width="1.1" stroke-linecap="round"/><line x1="71.6" y1="567.7" x2="70.0" y2="559.6" stroke="#ffd9a8" stroke-width="1.6" stroke-linecap="round"/><line x1="70.0" y1="559.6" x2="68.9" y2="551.5" stroke="#ffd9a8" stroke-width="1.6" stroke-linecap="round"/><line x1="68.9" y1="551.5" x2="65.8" y2="543.8" stroke="#ffd9a8" stroke-width="1.6" stroke-linecap="round"/><line x1="65.8" y1="543.8" x2="61.2" y2="537.0" stroke="#ffd9a8" stroke-width="1.6" stroke-linecap="round"/><line x1="61.2" y1="537.0" x2="49.0" y2="534.9" stroke="#ffd9a8" stroke-width="1.1" stroke-linecap="round"/><line x1="49.0" y1="534.9" x2="37.0" y2="537.6" stroke="#ffd9a8" stroke-width="1.1" stroke-linecap="round"/><line x1="61.2" y1="537.0" x2="55.7" y2="534.3" stroke="#ffd9a8" stroke-width="1.1" stroke-linecap="round"/><line x1="55.7" y1="534.3" x2="49.9" y2="532.1" stroke="#ffd9a8" stroke-width="1.1" stroke-linecap="round"/><line x1="49.9" y1="532.1" x2="43.8" y2="532.4" stroke="#ffd9a8" stroke-width="1.1" stroke-linecap="round"/><line x1="43.8" y1="532.4" x2="38.0" y2="534.5" stroke="#ffd9a8" stroke-width="1.1" stroke-linecap="round"/><line x1="108.7" y1="589.2" x2="113.2" y2="580.0" stroke="#ffd9a8" stroke-width="2.3" stroke-linecap="round"/><line x1="113.2" y1="580.0" x2="114.4" y2="569.9" stroke="#ffd9a8" stroke-width="2.3" stroke-linecap="round"/><line x1="114.4" y1="569.9" x2="120.1" y2="561.5" stroke="#ffd9a8" stroke-width="2.3" stroke-linecap="round"/><line x1="120.1" y1="561.5" x2="128.6" y2="556.1" stroke="#ffd9a8" stroke-width="2.3" stroke-linecap="round"/><line x1="128.6" y1="556.1" x2="131.3" y2="549.7" stroke="#ffd9a8" stroke-width="1.6" stroke-linecap="round"/><line x1="131.3" y1="549.7" x2="136.2" y2="544.7" stroke="#ffd9a8" stroke-width="1.6" stroke-linecap="round"/><line x1="136.2" y1="544.7" x2="140.0" y2="538.9" stroke="#ffd9a8" stroke-width="1.6" stroke-linecap="round"/><line x1="140.0" y1="538.9" x2="145.3" y2="534.4" stroke="#ffd9a8" stroke-width="1.6" stroke-linecap="round"/><line x1="145.3" y1="534.4" x2="143.7" y2="528.4" stroke="#ffd9a8" stroke-width="1.1" stroke-linecap="round"/><line x1="143.7" y1="528.4" x2="141.3" y2="522.6" stroke="#ffd9a8" stroke-width="1.1" stroke-linecap="round"/><line x1="141.3" y1="522.6" x2="137.1" y2="518.1" stroke="#ffd9a8" stroke-width="1.1" stroke-linecap="round"/><line x1="145.3" y1="534.4" x2="154.2" y2="536.4" stroke="#ffd9a8" stroke-width="1.1" stroke-linecap="round"/><line x1="154.2" y1="536.4" x2="161.5" y2="542.0" stroke="#ffd9a8" stroke-width="1.1" stroke-linecap="round"/><line x1="128.6" y1="556.1" x2="134.7" y2="556.1" stroke="#ffd9a8" stroke-width="1.6" stroke-linecap="round"/><line x1="134.7" y1="556.1" x2="140.4" y2="554.4" stroke="#ffd9a8" stroke-width="1.6" stroke-linecap="round"/><line x1="140.4" y1="554.4" x2="146.0" y2="552.1" stroke="#ffd9a8" stroke-width="1.6" stroke-linecap="round"/><line x1="146.0" y1="552.1" x2="150.0" y2="547.7" stroke="#ffd9a8" stroke-width="1.6" stroke-linecap="round"/><line x1="150.0" y1="547.7" x2="154.4" y2="546.0" stroke="#ffd9a8" stroke-width="1.1" stroke-linecap="round"/><line x1="154.4" y1="546.0" x2="159.0" y2="546.4" stroke="#ffd9a8" stroke-width="1.1" stroke-linecap="round"/><line x1="159.0" y1="546.4" x2="163.4" y2="544.6" stroke="#ffd9a8" stroke-width="1.1" stroke-linecap="round"/><line x1="150.0" y1="547.7" x2="154.4" y2="549.6" stroke="#ffd9a8" stroke-width="1.1" stroke-linecap="round"/><line x1="154.4" y1="549.6" x2="158.3" y2="552.1" stroke="#ffd9a8" stroke-width="1.1" stroke-linecap="round"/><line x1="158.3" y1="552.1" x2="162.4" y2="554.4" stroke="#ffd9a8" stroke-width="1.1" stroke-linecap="round"/><line x1="290.0" y1="660.0" x2="297.8" y2="644.7" stroke="#ffd9a8" stroke-width="3.4" stroke-linecap="round"/><line x1="297.8" y1="644.7" x2="311.8" y2="634.7" stroke="#ffd9a8" stroke-width="3.4" stroke-linecap="round"/><line x1="311.8" y1="634.7" x2="328.5" y2="630.6" stroke="#ffd9a8" stroke-width="3.4" stroke-linecap="round"/><line x1="328.5" y1="630.6" x2="345.7" y2="630.1" stroke="#ffd9a8" stroke-width="3.4" stroke-linecap="round"/><line x1="345.7" y1="630.1" x2="358.1" y2="619.5" stroke="#ffd9a8" stroke-width="2.3" stroke-linecap="round"/><line x1="358.1" y1="619.5" x2="365.7" y2="605.0" stroke="#ffd9a8" stroke-width="2.3" stroke-linecap="round"/><line x1="365.7" y1="605.0" x2="366.5" y2="588.7" stroke="#ffd9a8" stroke-width="2.3" stroke-linecap="round"/><line x1="366.5" y1="588.7" x2="355.7" y2="575.1" stroke="#ffd9a8" stroke-width="1.6" stroke-linecap="round"/><line x1="355.7" y1="575.1" x2="348.7" y2="559.2" stroke="#ffd9a8" stroke-width="1.6" stroke-linecap="round"/><line x1="348.7" y1="559.2" x2="340.6" y2="558.0" stroke="#ffd9a8" stroke-width="1.1" stroke-linecap="round"/><line x1="340.6" y1="558.0" x2="332.4" y2="558.6" stroke="#ffd9a8" stroke-width="1.1" stroke-linecap="round"/><line x1="332.4" y1="558.6" x2="324.3" y2="559.2" stroke="#ffd9a8" stroke-width="1.1" stroke-linecap="round"/><line x1="366.5" y1="588.7" x2="363.7" y2="571.7" stroke="#ffd9a8" stroke-width="1.6" stroke-linecap="round"/><line x1="363.7" y1="571.7" x2="354.6" y2="556.9" stroke="#ffd9a8" stroke-width="1.6" stroke-linecap="round"/><line x1="354.6" y1="556.9" x2="356.9" y2="544.8" stroke="#ffd9a8" stroke-width="1.1" stroke-linecap="round"/><line x1="356.9" y1="544.8" x2="364.3" y2="534.9" stroke="#ffd9a8" stroke-width="1.1" stroke-linecap="round"/><line x1="345.7" y1="630.1" x2="353.7" y2="624.0" stroke="#ffd9a8" stroke-width="2.3" stroke-linecap="round"/><line x1="353.7" y1="624.0" x2="362.7" y2="619.3" stroke="#ffd9a8" stroke-width="2.3" stroke-linecap="round"/><line x1="362.7" y1="619.3" x2="372.3" y2="616.1" stroke="#ffd9a8" stroke-width="2.3" stroke-linecap="round"/><line x1="372.3" y1="616.1" x2="380.2" y2="609.7" stroke="#ffd9a8" stroke-width="2.3" stroke-linecap="round"/><line x1="380.2" y1="609.7" x2="392.0" y2="602.5" stroke="#ffd9a8" stroke-width="1.6" stroke-linecap="round"/><line x1="392.0" y1="602.5" x2="405.7" y2="600.8" stroke="#ffd9a8" stroke-width="1.6" stroke-linecap="round"/><line x1="405.7" y1="600.8" x2="409.7" y2="603.2" stroke="#ffd9a8" stroke-width="1.1" stroke-linecap="round"/><line x1="409.7" y1="603.2" x2="414.3" y2="603.5" stroke="#ffd9a8" stroke-width="1.1" stroke-linecap="round"/><line x1="414.3" y1="603.5" x2="418.5" y2="601.7" stroke="#ffd9a8" stroke-width="1.1" stroke-linecap="round"/><line x1="418.5" y1="601.7" x2="421.8" y2="598.5" stroke="#ffd9a8" stroke-width="1.1" stroke-linecap="round"/><line x1="200.0" y1="420.0" x2="189.2" y2="383.9" stroke="#ffd9a8" stroke-width="3.4" stroke-linecap="round"/><line x1="189.2" y1="383.9" x2="189.6" y2="346.3" stroke="#ffd9a8" stroke-width="3.4" stroke-linecap="round"/><line x1="189.6" y1="346.3" x2="190.4" y2="332.9" stroke="#ffd9a8" stroke-width="2.3" stroke-linecap="round"/><line x1="190.4" y1="332.9" x2="192.7" y2="319.6" stroke="#ffd9a8" stroke-width="2.3" stroke-linecap="round"/><line x1="192.7" y1="319.6" x2="194.1" y2="306.3" stroke="#ffd9a8" stroke-width="2.3" stroke-linecap="round"/><line x1="194.1" y1="306.3" x2="195.5" y2="292.9" stroke="#ffd9a8" stroke-width="2.3" stroke-linecap="round"/><line x1="195.5" y1="292.9" x2="188.4" y2="289.0" stroke="#ffd9a8" stroke-width="1.6" stroke-linecap="round"/><line x1="188.4" y1="289.0" x2="181.7" y2="284.4" stroke="#ffd9a8" stroke-width="1.6" stroke-linecap="round"/><line x1="181.7" y1="284.4" x2="176.7" y2="278.1" stroke="#ffd9a8" stroke-width="1.6" stroke-linecap="round"/><line x1="176.7" y1="278.1" x2="174.0" y2="270.4" stroke="#ffd9a8" stroke-width="1.6" stroke-linecap="round"/><line x1="174.0" y1="270.4" x2="167.1" y2="263.1" stroke="#ffd9a8" stroke-width="1.1" stroke-linecap="round"/><line x1="167.1" y1="263.1" x2="159.3" y2="256.7" stroke="#ffd9a8" stroke-width="1.1" stroke-linecap="round"/><line x1="150.0" y1="300.0" x2="132.5" y2="267.5" stroke="#ffd9a8" stroke-width="3.4" stroke-linecap="round"/><line x1="132.5" y1="267.5" x2="117.1" y2="234.0" stroke="#ffd9a8" stroke-width="3.4" stroke-linecap="round"/><line x1="117.1" y1="234.0" x2="91.4" y2="234.7" stroke="#ffd9a8" stroke-width="2.3" stroke-linecap="round"/><line x1="91.4" y1="234.7" x2="66.0" y2="238.7" stroke="#ffd9a8" stroke-width="2.3" stroke-linecap="round"/><line x1="66.0" y1="238.7" x2="59.9" y2="246.1" stroke="#ffd9a8" stroke-width="1.6" stroke-linecap="round"/><line x1="59.9" y1="246.1" x2="56.2" y2="254.9" stroke="#ffd9a8" stroke-width="1.6" stroke-linecap="round"/><line x1="56.2" y1="254.9" x2="50.7" y2="262.8" stroke="#ffd9a8" stroke-width="1.6" stroke-linecap="round"/><line x1="50.7" y1="262.8" x2="44.8" y2="264.5" stroke="#ffd9a8" stroke-width="1.1" stroke-linecap="round"/><line x1="44.8" y1="264.5" x2="40.1" y2="268.3" stroke="#ffd9a8" stroke-width="1.1" stroke-linecap="round"/><line x1="40.1" y1="268.3" x2="35.2" y2="272.0" stroke="#ffd9a8" stroke-width="1.1" stroke-linecap="round"/><line x1="66.0" y1="238.7" x2="60.5" y2="233.9" stroke="#ffd9a8" stroke-width="1.6" stroke-linecap="round"/><line x1="60.5" y1="233.9" x2="55.7" y2="228.3" stroke="#ffd9a8" stroke-width="1.6" stroke-linecap="round"/><line x1="55.7" y1="228.3" x2="53.1" y2="221.4" stroke="#ffd9a8" stroke-width="1.6" stroke-linecap="round"/><line x1="53.1" y1="221.4" x2="49.5" y2="215.0" stroke="#ffd9a8" stroke-width="1.6" stroke-linecap="round"/><line x1="49.5" y1="215.0" x2="44.6" y2="212.2" stroke="#ffd9a8" stroke-width="1.1" stroke-linecap="round"/><line x1="44.6" y1="212.2" x2="41.4" y2="207.6" stroke="#ffd9a8" stroke-width="1.1" stroke-linecap="round"/><line x1="41.4" y1="207.6" x2="38.9" y2="202.6" stroke="#ffd9a8" stroke-width="1.1" stroke-linecap="round"/><line x1="49.5" y1="215.0" x2="52.6" y2="206.5" stroke="#ffd9a8" stroke-width="1.1" stroke-linecap="round"/><line x1="52.6" y1="206.5" x2="58.7" y2="199.8" stroke="#ffd9a8" stroke-width="1.1" stroke-linecap="round"/><line x1="250.0" y1="300.0" x2="272.0" y2="267.9" stroke="#ffd9a8" stroke-width="3.4" stroke-linecap="round"/><line x1="272.0" y1="267.9" x2="299.0" y2="239.8" stroke="#ffd9a8" stroke-width="3.4" stroke-linecap="round"/><line x1="299.0" y1="239.8" x2="307.7" y2="233.4" stroke="#ffd9a8" stroke-width="2.3" stroke-linecap="round"/><line x1="307.7" y1="233.4" x2="318.4" y2="231.7" stroke="#ffd9a8" stroke-width="2.3" stroke-linecap="round"/><line x1="318.4" y1="231.7" x2="328.9" y2="229.3" stroke="#ffd9a8" stroke-width="2.3" stroke-linecap="round"/><line x1="328.9" y1="229.3" x2="339.5" y2="231.0" stroke="#ffd9a8" stroke-width="2.3" stroke-linecap="round"/><line x1="339.5" y1="231.0" x2="345.8" y2="224.0" stroke="#ffd9a8" stroke-width="1.6" stroke-linecap="round"/><line x1="345.8" y1="224.0" x2="354.4" y2="220.2" stroke="#ffd9a8" stroke-width="1.6" stroke-linecap="round"/><line x1="354.4" y1="220.2" x2="363.8" y2="220.7" stroke="#ffd9a8" stroke-width="1.6" stroke-linecap="round"/><line x1="363.8" y1="220.7" x2="367.3" y2="218.1" stroke="#ffd9a8" stroke-width="1.1" stroke-linecap="round"/><line x1="367.3" y1="218.1" x2="370.4" y2="215.1" stroke="#ffd9a8" stroke-width="1.1" stroke-linecap="round"/><line x1="370.4" y1="215.1" x2="372.6" y2="211.4" stroke="#ffd9a8" stroke-width="1.1" stroke-linecap="round"/><line x1="372.6" y1="211.4" x2="374.6" y2="207.5" stroke="#ffd9a8" stroke-width="1.1" stroke-linecap="round"/><line x1="339.5" y1="231.0" x2="349.7" y2="223.9" stroke="#ffd9a8" stroke-width="1.6" stroke-linecap="round"/><line x1="349.7" y1="223.9" x2="359.4" y2="216.2" stroke="#ffd9a8" stroke-width="1.6" stroke-linecap="round"/><line x1="359.4" y1="216.2" x2="365.0" y2="213.8" stroke="#ffd9a8" stroke-width="1.1" stroke-linecap="round"/><line x1="365.0" y1="213.8" x2="370.7" y2="211.8" stroke="#ffd9a8" stroke-width="1.1" stroke-linecap="round"/><line x1="370.7" y1="211.8" x2="376.7" y2="211.3" stroke="#ffd9a8" stroke-width="1.1" stroke-linecap="round"/>
  <circle cx="186.0" cy="364.0" r="5" fill="#ffb488"/>
  <circle cx="214.0" cy="364.0" r="5" fill="#ffb488"/>
</svg>